<svg width="60" height="58" viewBox="0 0 60 58" fill="none" xmlns="http://www.w3.org/2000/svg">
<path d="M17.5559 27.7731C11.7259 23.6492 10.2155 15.7608 14.1818 10.1533C18.1481 4.54583 26.0893 3.34284 31.9195 7.46654C32.0041 7.52644 32.0879 7.58759 32.1707 7.64906C29.0926 8.20153 26.2555 9.87665 24.3432 12.58C20.4341 18.1066 21.845 25.8496 27.4679 30.0199C24.1612 30.6136 20.5755 29.909 17.5559 27.7731Z" fill="#D9D9D9"/>
<path d="M23.5 42L43.8516 47.25H3.1484L23.5 42Z" fill="#B4A9C8"/>
<rect x="28" y="41" width="28" height="17" fill="#D9D9D9"/>
<rect x="33" y="31" width="5" height="26" fill="#D9D9D9"/>
<rect x="6" y="47" width="23" height="11" fill="#B4A9C8"/>
<rect x="33" y="31" width="2" height="8" fill="#87799F"/>
<rect x="6" y="47" width="5" height="11" fill="#87799F"/>
<rect x="28" y="40" width="5" height="18" fill="#87799F"/>
<rect x="28" y="40" width="5" height="18" fill="#87799F"/>
<path d="M56 40.0353L28 46V40L56 40.0353Z" fill="#87799F"/>
<path d="M42 30L57.5885 41.25H26.4115L42 30Z" fill="#D9D9D9"/>
</svg>
